<?xml version="1.0" standalone="no"?>
<!DOCTYPE svg PUBLIC "-//W3C//DTD SVG 20010904//EN"
 "http://www.w3.org/TR/2001/REC-SVG-20010904/DTD/svg10.dtd">
<svg version="1.0" xmlns="http://www.w3.org/2000/svg"
 width="700.000000pt" height="700.000000pt" viewBox="0 0 700.000000 700.000000"
 preserveAspectRatio="xMidYMid meet">
<metadata>
Created by potrace 1.11, written by Peter Selinger 2001-2013
</metadata>
<g transform="translate(0.000000,700.000000) scale(0.100000,-0.100000)"
fill="#000000" stroke="none">
<path d="M3421 6918 c-53 -8 -173 -55 -179 -70 -2 -4 -8 -8 -12 -8 -5 0 -37
-16 -71 -36 -169 -100 -493 -284 -497 -284 -3 0 -13 -6 -21 -14 -9 -7 -41 -27
-71 -43 -30 -17 -136 -77 -235 -135 -192 -111 -633 -366 -700 -403 -22 -13
-85 -49 -140 -82 -55 -32 -107 -62 -115 -66 -8 -4 -31 -17 -50 -28 -19 -12
-141 -82 -270 -157 -367 -211 -400 -232 -456 -288 -50 -51 -105 -145 -121
-209 -13 -52 -16 -3102 -3 -3165 18 -86 68 -176 131 -239 39 -38 106 -85 215
-147 88 -51 263 -151 389 -224 127 -73 259 -149 295 -170 291 -170 500 -290
505 -290 3 0 18 -9 33 -19 24 -17 481 -282 577 -335 22 -13 171 -98 330 -190
354 -205 369 -213 447 -229 155 -32 259 -1 508 151 19 12 42 25 50 29 8 4 38
20 65 36 28 17 65 38 83 48 43 25 45 26 447 259 193 111 367 212 387 224 21
11 151 86 288 166 138 80 272 157 298 171 26 14 144 82 262 151 118 69 235
136 260 150 25 14 84 48 132 77 48 28 89 51 92 51 13 0 125 93 147 123 33 43
67 104 87 152 15 36 17 180 20 1590 2 1156 0 1564 -8 1605 -27 124 -101 233
-208 303 -54 36 -248 149 -577 337 -16 10 -219 127 -450 260 -231 134 -433
251 -450 260 -51 29 -353 204 -474 274 -62 36 -115 66 -117 66 -3 0 -21 11
-42 23 -145 92 -523 300 -568 313 -66 19 -138 23 -213 12z"/>
</g>
</svg>
